{"glyphs":{":":{"x_min":0,"x_max":454,"ha":454,"o":"m 286 406 l 169 406 l 169 545 l 286 545 z m 286 0 l 169 0 l 169 139 l 286 139 z"},"$":{"x_min":0,"x_max":636,"ha":636,"o":"m 566 186 q 566 110 507 60 q 448 10 353 0 l 353 -176 l 295 -176 l 295 -2 q 230 -1 174 10 q 117 22 76 42 l 76 138 l 83 138 q 93 131 117 118 q 141 105 163 97 q 188 88 222 80 q 256 72 295 70 l 295 282 q 275 286 259 289 q 242 293 228 297 q 148 317 114 357 q 79 397 79 457 q 79 529 136 579 q 193 628 295 637 l 295 770 l 353 770 l 353 638 q 402 637 454 626 q 505 615 541 601 l 541 505 l 534 505 q 497 528 457 545 q 417 562 353 567 l 353 356 q 367 354 384 350 q 401 346 414 343 q 487 328 527 290 q 566 251 566 186 z m 295 365 l 295 566 q 243 562 207 538 q 171 513 171 469 q 171 425 198 402 q 224 380 295 365 z m 474 173 q 474 219 446 240 q 417 261 353 273 l 353 71 q 411 77 443 101 q 474 125 474 173 z"},"?":{"x_min":0,"x_max":545,"ha":545,"o":"m 491 556 q 491 508 474 471 q 457 434 429 405 q 401 377 366 353 q 330 328 290 305 l 290 195 l 203 195 l 203 344 q 234 362 271 384 q 308 405 332 427 q 360 453 375 480 q 391 507 391 549 q 391 604 354 631 q 316 658 257 658 q 205 658 157 642 q 110 625 83 608 l 78 608 l 78 708 q 112 721 165 731 q 217 742 264 742 q 369 742 430 691 q 491 640 491 556 z m 298 0 l 198 0 l 198 103 l 298 103 z"},"<":{"x_min":0,"x_max":818,"ha":818,"o":"m 688 38 l 124 288 l 124 349 l 688 599 l 688 511 l 243 318 l 688 125 z"},"'":{"x_min":0,"x_max":269,"ha":269,"o":"m 188 760 l 167 477 l 101 477 l 80 760 z"},"=":{"x_min":0,"x_max":818,"ha":818,"o":"m 699 382 l 120 382 l 120 460 l 699 460 z m 699 177 l 120 177 l 120 255 l 699 255 z"},"a":{"x_min":0,"x_max":601,"ha":601,"o":"m 514 0 l 423 0 l 423 58 q 411 50 390 35 q 369 20 350 11 q 327 0 297 -8 q 267 -15 227 -15 q 153 -15 102 34 q 51 83 51 158 q 51 220 77 259 q 104 297 153 319 q 203 341 273 349 q 343 356 423 360 l 423 375 q 423 406 412 426 q 401 447 380 458 q 361 470 333 474 q 306 478 276 478 q 240 478 196 468 q 151 458 104 440 l 99 440 l 99 534 q 126 541 177 550 q 228 559 277 559 q 334 559 377 549 q 420 540 451 517 q 482 494 498 458 q 514 423 514 370 z m 423 134 l 423 286 q 381 284 324 279 q 267 274 234 265 q 194 253 170 230 q 146 206 146 165 q 146 118 174 94 q 202 70 260 70 q 309 70 349 89 q 389 108 423 134 z"},"L":{"x_min":0,"x_max":557,"ha":557,"o":"m 558 0 l 98 0 l 98 727 l 194 727 l 194 86 l 558 86 z"},"3":{"x_min":0,"x_max":636,"ha":636,"o":"m 507 350 q 530 329 545 297 q 561 266 561 215 q 561 166 542 124 q 524 83 492 52 q 455 18 406 1 q 356 -15 297 -15 q 236 -15 178 -1 q 119 14 82 31 l 82 133 l 89 133 q 130 105 187 87 q 243 69 295 69 q 326 69 360 80 q 395 90 417 110 q 439 131 450 157 q 461 183 461 223 q 461 262 448 287 q 436 313 414 328 q 392 343 361 348 q 330 354 293 354 l 250 354 l 250 435 l 284 435 q 358 435 402 466 q 446 497 446 557 q 446 583 435 603 q 424 623 404 635 q 383 648 359 653 q 335 658 305 658 q 258 658 206 641 q 154 625 107 594 l 103 594 l 103 696 q 137 713 195 728 q 253 742 307 742 q 360 742 401 732 q 441 723 474 701 q 509 678 527 645 q 545 611 545 567 q 545 506 503 461 q 460 416 402 404 l 402 397 q 425 394 456 381 q 486 369 507 350 z"},";":{"x_min":0,"x_max":454,"ha":454,"o":"m 286 406 l 169 406 l 169 545 l 286 545 z m 321 139 l 184 -181 l 112 -181 l 197 139 z"},"J":{"x_min":0,"x_max":455,"ha":455,"o":"m 364 189 q 364 93 306 42 q 248 -10 149 -10 q 126 -10 87 -6 q 48 -2 21 4 l 21 94 l 27 94 q 47 87 76 80 q 105 73 136 73 q 181 73 208 83 q 234 93 247 112 q 260 132 264 160 q 268 188 268 226 l 268 650 l 114 650 l 114 727 l 364 727 z"},"V":{"x_min":0,"x_max":684,"ha":684,"o":"m 671 727 l 406 0 l 277 0 l 13 727 l 116 727 l 344 87 l 572 727 z"},"\"":{"x_min":0,"x_max":459,"ha":459,"o":"m 377 760 l 356 477 l 292 477 l 271 760 z m 188 760 l 167 477 l 103 477 l 82 760 z"},"7":{"x_min":0,"x_max":636,"ha":636,"o":"m 573 618 l 244 0 l 139 0 l 489 642 l 75 642 l 75 727 l 573 727 z"},"S":{"x_min":0,"x_max":684,"ha":684,"o":"m 626 208 q 626 165 606 124 q 586 82 551 53 q 512 22 460 4 q 408 -13 334 -13 q 256 -13 193 1 q 130 16 65 45 l 65 166 l 72 166 q 127 120 200 95 q 272 70 335 70 q 425 70 475 104 q 525 138 525 194 q 525 242 502 265 q 478 288 430 301 q 393 311 350 317 q 308 323 260 333 q 163 354 116 403 q 70 453 70 532 q 70 624 147 682 q 224 740 343 740 q 419 740 483 726 q 547 711 597 689 l 597 575 l 590 575 q 548 610 481 634 q 413 657 342 657 q 265 657 218 625 q 170 592 170 542 q 170 496 194 470 q 217 444 276 431 q 308 424 365 414 q 423 404 463 394 q 544 373 585 329 q 626 286 626 208 z"},"}":{"x_min":0,"x_max":635,"ha":635,"o":"m 550 246 l 525 246 q 442 246 401 199 q 361 153 361 70 l 361 -2 q 361 -94 306 -143 q 252 -191 165 -191 l 91 -191 l 91 -124 l 147 -124 q 213 -124 243 -93 q 273 -62 273 6 l 273 91 q 273 159 311 205 q 349 251 416 278 l 416 290 q 349 317 311 363 q 273 409 273 477 l 273 562 q 273 631 243 662 q 213 692 147 692 l 91 692 l 91 760 l 165 760 q 252 760 306 711 q 361 663 361 571 l 361 498 q 361 416 401 369 q 442 322 525 322 l 550 322 z"},"Z":{"x_min":0,"x_max":685,"ha":685,"o":"m 629 0 l 62 0 l 62 90 l 507 641 l 78 641 l 78 727 l 618 727 l 618 640 l 168 86 l 629 86 z"},"x":{"x_min":0,"x_max":592,"ha":592,"o":"m 562 0 l 447 0 l 292 209 l 136 0 l 29 0 l 242 272 l 31 545 l 147 545 l 301 339 l 455 545 l 562 545 l 348 277 z"},")":{"x_min":0,"x_max":454,"ha":454,"o":"m 366 279 q 366 132 318 15 q 270 -102 184 -201 l 72 -201 l 72 -196 q 109 -163 147 -114 q 185 -65 214 -5 q 244 57 262 126 q 280 196 280 279 q 280 359 262 432 q 244 504 214 564 q 183 626 147 673 q 111 719 72 755 l 72 760 l 184 760 q 270 661 318 543 q 366 426 366 279 z"},"&":{"x_min":0,"x_max":727,"ha":727,"o":"m 387 582 q 387 628 359 655 q 332 681 289 681 q 244 681 215 651 q 187 621 187 578 q 187 541 206 513 q 226 484 290 446 q 337 463 362 496 q 387 529 387 582 z m 481 154 l 248 381 q 233 374 218 362 q 203 350 188 330 q 174 311 165 284 q 156 257 156 223 q 156 152 198 108 q 240 64 316 64 q 362 64 406 87 q 451 109 481 154 z m 628 444 l 628 397 q 628 350 616 292 q 604 233 575 180 l 759 0 l 639 0 l 527 109 q 471 40 413 12 q 354 -15 292 -15 q 190 -15 123 44 q 56 104 56 200 q 56 245 69 277 q 82 310 99 334 q 116 357 141 377 q 167 397 192 413 q 139 448 115 483 q 91 519 91 573 q 91 606 104 635 q 117 665 143 689 q 167 713 207 728 q 246 742 293 742 q 378 742 430 699 q 482 657 482 591 q 482 570 477 543 q 471 516 457 494 q 441 470 412 448 q 383 426 337 411 l 519 234 q 525 253 529 277 q 532 300 533 326 q 534 353 533 387 q 533 420 533 444 z"},"_":{"x_min":0,"x_max":636,"ha":636,"o":"m 638 -146 l -2 -146 l -2 -88 l 638 -88 z"},"v":{"x_min":0,"x_max":592,"ha":592,"o":"m 562 545 l 341 0 l 249 0 l 30 545 l 129 545 l 298 111 l 466 545 z"},"O":{"x_min":0,"x_max":787,"ha":787,"o":"m 640 644 q 684 595 708 524 q 731 453 731 363 q 731 273 707 202 q 683 131 640 84 q 595 35 533 10 q 472 -15 394 -15 q 317 -15 254 10 q 191 36 147 84 q 104 132 80 203 q 56 273 56 363 q 56 452 80 523 q 103 593 148 644 q 191 691 255 717 q 318 742 394 742 q 472 742 534 717 q 596 691 640 644 z m 631 363 q 631 505 567 582 q 504 659 394 659 q 283 659 220 582 q 157 505 157 363 q 157 220 221 144 q 286 68 394 68 q 502 68 567 144 q 631 220 631 363 z"},"(":{"x_min":0,"x_max":454,"ha":454,"o":"m 382 -201 l 271 -201 q 184 -102 136 15 q 88 132 88 279 q 88 426 136 543 q 184 661 271 760 l 382 760 l 382 755 q 343 719 307 673 q 271 626 240 564 q 211 504 193 432 q 174 359 174 279 q 174 196 192 126 q 210 57 240 -5 q 270 -65 307 -114 q 345 -163 382 -196 z"},"C":{"x_min":0,"x_max":698,"ha":698,"o":"m 659 53 q 632 41 611 31 q 589 21 554 9 q 524 0 489 -7 q 454 -13 412 -13 q 333 -13 268 9 q 204 31 156 79 q 109 125 83 197 q 56 268 56 363 q 56 453 82 523 q 107 594 155 643 q 201 690 267 715 q 333 740 413 740 q 471 740 530 726 q 588 712 659 676 l 659 562 l 652 562 q 592 612 533 635 q 474 658 406 658 q 351 658 307 640 q 263 622 228 584 q 194 548 176 492 q 157 436 157 363 q 157 286 177 231 q 198 176 231 141 q 265 105 311 88 q 356 70 407 70 q 477 70 538 94 q 599 118 652 166 l 659 166 z"},"W":{"x_min":0,"x_max":989,"ha":989,"o":"m 944 727 l 755 0 l 646 0 l 493 604 l 344 0 l 237 0 l 45 727 l 144 727 l 297 123 l 447 727 l 545 727 l 697 117 l 849 727 z"},"A":{"x_min":0,"x_max":684,"ha":684,"o":"m 671 0 l 568 0 l 497 203 l 182 203 l 111 0 l 13 0 l 277 727 l 406 727 z m 467 286 l 339 643 l 211 286 z"},"f":{"x_min":0,"x_max":352,"ha":352,"o":"m 384 671 l 379 671 q 364 675 339 680 q 315 685 296 685 q 237 685 211 658 q 184 632 184 564 l 184 545 l 350 545 l 350 468 l 187 468 l 187 0 l 95 0 l 95 468 l 33 468 l 33 545 l 95 545 l 95 563 q 95 661 144 713 q 192 765 283 765 q 314 765 339 762 q 363 759 384 755 z"},"Q":{"x_min":0,"x_max":787,"ha":787,"o":"m 746 -178 q 717 -186 688 -189 q 660 -192 630 -192 q 545 -192 493 -145 q 442 -99 438 -12 q 426 -14 415 -14 q 404 -15 394 -15 q 317 -15 254 10 q 191 36 147 84 q 104 132 80 203 q 56 273 56 363 q 56 452 80 523 q 103 593 148 644 q 191 691 255 717 q 318 742 394 742 q 472 742 534 717 q 596 691 640 644 q 684 595 708 524 q 731 453 731 363 q 731 230 677 139 q 623 47 531 11 q 533 -45 557 -76 q 582 -106 646 -106 q 666 -106 694 -100 q 721 -94 733 -89 l 746 -89 z m 631 363 q 631 505 567 582 q 504 659 394 659 q 283 659 220 582 q 157 505 157 363 q 157 220 221 144 q 286 68 394 68 q 502 68 567 144 q 631 220 631 363 z"},"w":{"x_min":0,"x_max":818,"ha":818,"o":"m 776 545 l 634 0 l 549 0 l 409 420 l 270 0 l 186 0 l 42 545 l 138 545 l 238 123 l 374 545 l 450 545 l 589 123 l 684 545 z"},"-":{"x_min":0,"x_max":454,"ha":454,"o":"m 379 274 l 75 274 l 75 362 l 379 362 z"},"E":{"x_min":0,"x_max":632,"ha":632,"o":"m 577 0 l 98 0 l 98 727 l 577 727 l 577 641 l 194 641 l 194 442 l 577 442 l 577 356 l 194 356 l 194 86 l 577 86 z"},"s":{"x_min":0,"x_max":521,"ha":521,"o":"m 480 157 q 480 83 418 35 q 356 -13 250 -13 q 189 -13 138 1 q 88 16 54 33 l 54 136 l 59 136 q 102 103 155 84 q 208 64 257 64 q 318 64 352 84 q 386 104 386 146 q 386 178 368 194 q 349 211 296 223 q 277 227 245 233 q 214 239 188 246 q 116 265 86 302 q 56 338 56 392 q 56 426 70 456 q 84 485 112 509 q 140 532 182 545 q 224 559 276 559 q 325 559 375 547 q 425 535 458 518 l 458 419 l 454 419 q 418 445 368 463 q 318 481 270 481 q 219 481 185 462 q 150 442 150 404 q 150 371 171 354 q 191 336 237 326 q 263 320 294 314 q 326 308 347 303 q 411 289 445 253 q 480 217 480 157 z"},">":{"x_min":0,"x_max":818,"ha":818,"o":"m 694 288 l 131 38 l 131 125 l 575 318 l 131 511 l 131 599 l 694 349 z"},"l":{"x_min":0,"x_max":274,"ha":274,"o":"m 183 0 l 91 0 l 91 760 l 183 760 z"},"8":{"x_min":0,"x_max":636,"ha":636,"o":"m 576 203 q 576 108 503 46 q 429 -17 318 -17 q 200 -17 130 44 q 60 105 60 201 q 60 261 95 310 q 130 359 194 388 l 194 391 q 135 422 107 459 q 79 497 79 552 q 79 634 146 689 q 214 744 318 744 q 427 744 492 691 q 557 639 557 559 q 557 509 526 462 q 495 414 436 387 l 436 384 q 504 355 540 312 q 576 269 576 203 z m 460 558 q 460 610 420 641 q 380 672 317 672 q 256 672 217 643 q 177 613 177 563 q 177 528 197 503 q 217 477 257 457 q 275 448 309 434 q 343 420 375 411 q 423 443 442 478 q 460 512 460 558 z m 476 193 q 476 238 456 265 q 436 292 378 320 q 355 331 328 340 q 301 349 255 366 q 211 342 185 301 q 158 260 158 208 q 158 142 204 99 q 249 56 319 56 q 390 56 433 93 q 476 129 476 193 z"},"\\":{"x_min":0,"x_max":454,"ha":454,"o":"m 469 -148 l 384 -148 l 34 760 l 120 760 z"},"e":{"x_min":0,"x_max":596,"ha":596,"o":"m 547 263 l 145 263 q 145 213 160 176 q 175 138 202 114 q 227 91 262 79 q 297 67 339 67 q 395 67 451 90 q 507 112 531 133 l 536 133 l 536 33 q 490 14 441 0 q 393 -13 340 -13 q 204 -13 128 61 q 52 134 52 270 q 52 403 125 482 q 198 561 317 561 q 427 561 487 496 q 547 432 547 313 z m 458 333 q 457 406 421 445 q 385 485 312 485 q 238 485 195 441 q 151 398 145 333 z"},"b":{"x_min":0,"x_max":623,"ha":623,"o":"m 570 277 q 570 208 551 154 q 532 99 499 62 q 464 23 423 4 q 381 -15 332 -15 q 285 -15 250 -4 q 216 7 182 25 l 176 0 l 90 0 l 90 760 l 182 760 l 182 488 q 221 520 264 540 q 308 561 362 561 q 458 561 514 486 q 570 412 570 277 z m 476 274 q 476 372 443 423 q 411 473 339 473 q 299 473 258 456 q 217 438 182 411 l 182 99 q 221 81 249 74 q 277 67 313 67 q 389 67 432 117 q 476 167 476 274 z"},"%":{"x_min":0,"x_max":1076,"ha":1076,"o":"m 432 525 q 432 416 385 363 q 339 310 252 310 q 164 310 118 363 q 73 416 73 525 q 73 634 119 688 q 166 741 252 741 q 341 741 386 687 q 432 633 432 525 z m 769 727 l 388 0 l 308 0 l 688 727 z m 1003 202 q 1003 92 957 39 q 911 -14 824 -14 q 735 -14 690 40 q 645 93 645 201 q 645 311 691 364 q 737 417 824 417 q 913 417 958 364 q 1003 311 1003 202 z m 345 525 q 345 609 323 643 q 301 676 252 676 q 203 676 181 643 q 160 609 160 525 q 160 440 181 407 q 203 375 252 375 q 301 375 323 407 q 345 440 345 525 z m 917 202 q 917 286 895 319 q 873 352 824 352 q 774 352 753 319 q 731 286 731 201 q 731 117 753 84 q 774 51 824 51 q 873 51 895 84 q 917 117 917 202 z"},"m":{"x_min":0,"x_max":973,"ha":973,"o":"m 886 0 l 794 0 l 794 311 q 794 346 791 378 q 788 411 778 431 q 767 452 746 462 q 725 473 685 473 q 646 473 608 454 q 569 435 531 405 q 532 394 533 379 q 534 364 534 349 l 534 0 l 442 0 l 442 311 q 442 347 439 379 q 436 412 426 431 q 415 452 394 463 q 373 473 333 473 q 295 473 258 455 q 220 436 182 407 l 182 0 l 90 0 l 90 545 l 182 545 l 182 485 q 225 521 268 541 q 311 561 359 561 q 415 561 453 537 q 492 514 511 472 q 567 519 613 540 q 659 561 711 561 q 801 561 844 506 q 886 452 886 354 z"},"#":{"x_min":0,"x_max":818,"ha":818,"o":"m 723 455 l 561 455 l 516 271 l 666 271 l 666 206 l 499 206 l 448 0 l 385 0 l 436 206 l 304 206 l 253 0 l 190 0 l 241 206 l 95 206 l 95 271 l 258 271 l 303 455 l 152 455 l 152 521 l 320 521 l 371 727 l 434 727 l 383 521 l 515 521 l 566 727 l 629 727 l 578 521 l 723 521 z m 499 456 l 365 456 l 319 271 l 453 271 z"},",":{"x_min":0,"x_max":364,"ha":364,"o":"m 281 139 l 143 -181 l 72 -181 l 157 139 z"},"n":{"x_min":0,"x_max":633,"ha":633,"o":"m 546 0 l 455 0 l 455 311 q 455 348 450 381 q 446 414 434 433 q 422 453 399 463 q 376 473 339 473 q 302 473 261 455 q 220 436 182 407 l 182 0 l 90 0 l 90 545 l 182 545 l 182 485 q 225 521 271 541 q 317 561 365 561 q 454 561 500 507 q 546 454 546 354 z"},"h":{"x_min":0,"x_max":633,"ha":633,"o":"m 546 0 l 455 0 l 455 311 q 455 348 450 381 q 446 414 434 433 q 422 453 399 463 q 376 473 339 473 q 302 473 261 455 q 220 436 182 407 l 182 0 l 90 0 l 90 760 l 182 760 l 182 485 q 225 521 271 541 q 317 561 365 561 q 454 561 500 507 q 546 454 546 354 z"},"z":{"x_min":0,"x_max":525,"ha":525,"o":"m 486 0 l 45 0 l 45 68 l 363 469 l 52 469 l 52 545 l 478 545 l 478 480 l 158 78 l 486 78 z"},"B":{"x_min":0,"x_max":686,"ha":686,"o":"m 646 224 q 646 169 625 128 q 605 86 570 60 q 529 27 480 14 q 431 0 355 0 l 98 0 l 98 727 l 313 727 q 393 727 432 721 q 472 715 508 697 q 548 676 566 643 q 584 610 584 564 q 584 512 558 476 q 531 439 487 417 l 487 414 q 561 398 604 349 q 646 299 646 224 z m 483 551 q 483 578 475 596 q 466 614 446 625 q 423 638 391 641 q 358 645 310 645 l 194 645 l 194 435 l 319 435 q 365 435 392 439 q 418 444 441 458 q 464 473 474 496 q 483 520 483 551 z m 545 220 q 545 264 532 290 q 519 315 484 333 q 461 346 427 349 q 394 353 346 353 l 194 353 l 194 83 l 322 83 q 386 83 426 89 q 467 96 493 113 q 520 132 533 157 q 545 181 545 220 z"},"K":{"x_min":0,"x_max":693,"ha":693,"o":"m 682 0 l 557 0 l 269 324 l 197 247 l 197 0 l 100 0 l 100 727 l 197 727 l 197 348 l 550 727 l 667 727 l 342 385 z"},"R":{"x_min":0,"x_max":695,"ha":695,"o":"m 699 0 l 574 0 l 331 289 l 194 289 l 194 0 l 98 0 l 98 727 l 301 727 q 367 727 411 719 q 455 710 490 688 q 530 663 552 625 q 574 587 574 529 q 574 451 535 398 q 495 345 426 318 z m 473 522 q 473 554 462 578 q 451 602 426 619 q 405 633 376 638 q 347 644 308 644 l 194 644 l 194 370 l 292 370 q 338 370 372 378 q 406 386 430 408 q 452 428 463 455 q 473 481 473 522 z"},"T":{"x_min":0,"x_max":616,"ha":616,"o":"m 616 641 l 356 641 l 356 0 l 260 0 l 260 641 l 0 641 l 0 727 l 616 727 z"},"P":{"x_min":0,"x_max":603,"ha":603,"o":"m 573 507 q 573 459 556 418 q 540 376 509 346 q 472 309 420 290 q 369 271 291 271 l 194 271 l 194 0 l 98 0 l 98 727 l 295 727 q 360 727 406 716 q 451 705 486 682 q 528 654 551 612 q 573 571 573 507 z m 473 505 q 473 542 459 570 q 446 598 419 616 q 396 631 366 637 q 336 644 290 644 l 194 644 l 194 354 l 276 354 q 334 354 371 364 q 408 375 431 397 q 454 421 463 447 q 473 473 473 505 z"},"|":{"x_min":0,"x_max":454,"ha":454,"o":"m 270 -191 l 185 -191 l 185 760 l 270 760 z"},"t":{"x_min":0,"x_max":394,"ha":394,"o":"m 374 5 q 348 -2 317 -6 q 287 -11 263 -11 q 179 -11 136 34 q 92 79 92 178 l 92 468 l 30 468 l 30 545 l 92 545 l 92 702 l 184 702 l 184 545 l 374 545 l 374 468 l 184 468 l 184 220 q 184 177 186 153 q 188 128 200 107 q 210 88 229 79 q 248 70 287 70 q 309 70 333 76 q 358 83 369 87 l 374 87 z"},"M":{"x_min":0,"x_max":843,"ha":843,"o":"m 745 0 l 648 0 l 648 626 l 446 200 l 389 200 l 188 626 l 188 0 l 98 0 l 98 727 l 229 727 l 423 322 l 611 727 l 745 727 z"},"g":{"x_min":0,"x_max":623,"ha":623,"o":"m 533 62 q 533 -77 470 -142 q 407 -207 276 -207 q 232 -207 191 -200 q 150 -194 110 -183 l 110 -89 l 115 -89 q 137 -98 186 -111 q 235 -124 284 -124 q 331 -124 361 -113 q 392 -102 409 -82 q 426 -62 434 -36 q 441 -9 441 24 l 441 74 q 399 41 362 25 q 324 8 265 8 q 167 8 110 79 q 53 149 53 278 q 53 348 73 399 q 92 450 126 487 q 158 522 204 541 q 249 561 294 561 q 341 561 373 551 q 405 542 441 522 l 447 545 l 533 545 z m 441 150 l 441 447 q 404 464 373 471 q 341 478 310 478 q 234 478 191 427 q 147 376 147 280 q 147 188 180 141 q 212 93 287 93 q 327 93 367 109 q 407 124 441 150 z"},"j":{"x_min":0,"x_max":344,"ha":344,"o":"m 260 637 l 157 637 l 157 732 l 260 732 z m 254 -13 q 254 -109 206 -158 q 157 -207 75 -207 q 55 -207 23 -203 q -9 -199 -30 -193 l -30 -105 l -25 -105 q -12 -111 11 -118 q 35 -125 57 -125 q 92 -125 113 -115 q 135 -105 146 -85 q 156 -66 159 -38 q 163 -11 163 29 l 163 468 l 49 468 l 49 545 l 254 545 z"},"i":{"x_min":0,"x_max":274,"ha":274,"o":"m 189 637 l 85 637 l 85 732 l 189 732 z m 183 0 l 91 0 l 91 545 l 183 545 z"},"y":{"x_min":0,"x_max":592,"ha":592,"o":"m 562 545 l 244 -201 l 146 -201 l 247 26 l 30 545 l 129 545 l 297 141 l 466 545 z"},"@":{"x_min":0,"x_max":1000,"ha":1000,"o":"m 913 324 q 913 256 893 192 q 874 129 837 77 l 622 77 l 609 133 q 573 104 540 88 q 506 73 463 73 q 381 73 332 135 q 283 197 283 308 q 283 419 343 485 q 403 551 487 551 q 522 551 550 543 q 577 535 609 519 l 609 542 l 687 542 l 687 131 l 805 131 q 826 167 836 222 q 847 277 847 321 q 847 401 824 466 q 802 532 759 579 q 716 625 653 651 q 589 676 509 676 q 431 676 366 647 q 301 619 255 571 q 208 523 181 457 q 155 390 155 315 q 155 234 180 168 q 206 101 252 54 q 300 4 365 -21 q 430 -46 507 -46 q 549 -46 594 -41 q 638 -35 679 -23 l 679 -93 q 632 -103 591 -107 q 550 -110 506 -110 q 416 -110 338 -79 q 260 -48 205 7 q 148 63 117 142 q 86 221 86 316 q 86 406 119 484 q 151 562 208 619 q 265 676 342 709 q 420 742 508 742 q 604 742 679 711 q 754 681 806 626 q 858 572 885 495 q 913 418 913 324 z m 608 199 l 608 452 q 577 466 553 472 q 528 479 500 479 q 438 479 402 435 q 366 391 366 310 q 366 230 395 189 q 423 148 483 148 q 516 148 548 164 q 581 179 608 199 z"},".":{"x_min":0,"x_max":364,"ha":364,"o":"m 240 0 l 124 0 l 124 139 l 240 139 z"},"p":{"x_min":0,"x_max":623,"ha":623,"o":"m 570 279 q 570 213 551 158 q 532 103 498 65 q 465 29 422 9 q 378 -11 329 -11 q 287 -11 252 -1 q 218 8 182 27 l 182 -201 l 90 -201 l 90 545 l 182 545 l 182 488 q 219 519 264 540 q 310 561 362 561 q 460 561 515 486 q 570 412 570 279 z m 476 277 q 476 375 442 424 q 408 473 338 473 q 299 473 259 456 q 219 439 182 411 l 182 102 q 221 84 249 78 q 277 72 313 72 q 390 72 433 124 q 476 175 476 277 z"},"X":{"x_min":0,"x_max":685,"ha":685,"o":"m 652 727 l 401 368 l 652 0 l 540 0 l 342 299 l 139 0 l 33 0 l 287 363 l 39 727 l 150 727 l 346 432 l 546 727 z"},"*":{"x_min":0,"x_max":636,"ha":636,"o":"m 555 433 l 524 379 l 347 483 l 350 308 l 287 308 l 290 483 l 113 379 l 82 433 l 268 534 l 82 635 l 113 688 l 290 584 l 287 760 l 350 760 l 347 584 l 524 688 l 555 634 l 370 534 z"},"Y":{"x_min":0,"x_max":615,"ha":615,"o":"m 612 727 l 356 319 l 356 0 l 260 0 l 260 309 l 3 727 l 110 727 l 309 402 l 509 727 z"},"c":{"x_min":0,"x_max":521,"ha":521,"o":"m 494 34 q 448 12 406 0 q 365 -12 319 -12 q 260 -12 210 5 q 161 22 126 58 q 90 93 71 146 q 51 200 51 272 q 51 406 125 482 q 198 558 319 558 q 366 558 411 545 q 456 532 494 513 l 494 411 l 489 411 q 447 443 402 461 q 357 479 315 479 q 237 479 192 426 q 146 374 146 272 q 146 173 191 120 q 235 67 315 67 q 343 67 372 75 q 400 82 423 94 q 443 104 461 115 q 479 127 489 135 l 494 135 z"},"!":{"x_min":0,"x_max":394,"ha":394,"o":"m 251 727 l 239 200 l 156 200 l 142 727 z m 247 0 l 147 0 l 147 103 l 247 103 z"},"/":{"x_min":0,"x_max":454,"ha":454,"o":"m 420 760 l 70 -148 l -15 -148 l 334 760 z"},"[":{"x_min":0,"x_max":454,"ha":454,"o":"m 371 -191 l 117 -191 l 117 760 l 371 760 l 371 690 l 202 690 l 202 -122 l 371 -122 z"},"6":{"x_min":0,"x_max":636,"ha":636,"o":"m 582 236 q 582 125 509 55 q 436 -15 330 -15 q 276 -15 232 1 q 188 18 154 51 q 112 91 90 158 q 67 225 67 319 q 67 416 88 491 q 108 565 154 624 q 197 679 265 710 q 333 741 423 741 q 452 741 471 738 q 491 736 511 729 l 511 636 l 506 636 q 492 644 465 650 q 437 657 408 657 q 303 657 241 591 q 178 525 168 414 q 209 438 249 451 q 289 464 341 464 q 387 464 423 456 q 458 447 495 421 q 538 392 560 346 q 582 301 582 236 z m 482 232 q 482 277 469 307 q 456 337 425 359 q 402 375 375 379 q 348 384 318 384 q 276 384 241 375 q 205 365 167 344 q 167 333 166 323 q 166 313 166 298 q 166 221 181 177 q 197 132 225 106 q 248 84 274 74 q 300 64 331 64 q 401 64 442 108 q 482 151 482 232 z"},"r":{"x_min":0,"x_max":427,"ha":427,"o":"m 431 445 l 426 445 q 405 450 386 452 q 367 455 340 455 q 298 455 258 436 q 219 417 182 387 l 182 0 l 90 0 l 90 545 l 182 545 l 182 465 q 237 509 279 527 q 320 545 364 545 q 388 545 398 544 q 409 543 431 540 z"},"2":{"x_min":0,"x_max":636,"ha":636,"o":"m 571 0 l 79 0 l 79 102 q 130 146 181 190 q 233 234 277 277 q 371 368 406 422 q 440 475 440 537 q 440 594 403 626 q 366 658 299 658 q 254 658 203 642 q 151 626 102 594 l 97 594 l 97 697 q 131 714 189 728 q 247 742 301 742 q 413 742 477 688 q 540 634 540 542 q 540 500 530 465 q 519 429 499 396 q 479 366 454 337 q 428 308 392 272 q 339 221 284 173 q 228 125 180 83 l 571 83 z"},"{":{"x_min":0,"x_max":635,"ha":635,"o":"m 543 -191 l 470 -191 q 383 -191 328 -143 q 274 -94 274 -2 l 274 70 q 274 153 233 199 q 193 246 109 246 l 84 246 l 84 322 l 109 322 q 193 322 233 369 q 274 416 274 498 l 274 571 q 274 663 328 711 q 383 760 470 760 l 543 760 l 543 692 l 488 692 q 421 692 391 662 q 361 631 361 562 l 361 477 q 361 409 324 363 q 286 317 219 290 l 219 278 q 286 251 324 205 q 361 159 361 91 l 361 6 q 361 -62 391 -93 q 421 -124 488 -124 l 543 -124 z"},"9":{"x_min":0,"x_max":636,"ha":636,"o":"m 570 407 q 570 312 548 234 q 526 157 482 102 q 438 46 371 16 q 304 -14 214 -14 q 188 -14 166 -11 q 144 -9 126 -3 l 126 90 l 131 90 q 145 83 171 76 q 197 70 229 70 q 336 70 398 135 q 459 199 469 313 q 423 286 383 274 q 343 262 296 262 q 251 262 215 271 q 178 280 142 305 q 99 335 77 381 q 55 427 55 491 q 55 602 128 672 q 202 742 307 742 q 360 742 405 725 q 450 709 483 676 q 525 636 547 572 q 570 508 570 407 z m 471 428 q 471 504 456 550 q 440 596 413 621 q 390 643 363 653 q 337 662 306 662 q 236 662 195 618 q 154 574 154 495 q 154 448 167 419 q 181 390 212 368 q 234 353 260 347 q 287 342 319 342 q 357 342 396 353 q 435 363 469 382 q 470 393 470 403 q 471 413 471 428 z"}," ":{"x_min":0,"x_max":352,"ha":352,"o":""},"I":{"x_min":0,"x_max":421,"ha":421,"o":"m 354 0 l 67 0 l 67 74 l 162 74 l 162 653 l 67 653 l 67 727 l 354 727 l 354 653 l 259 653 l 259 74 l 354 74 z"},"H":{"x_min":0,"x_max":751,"ha":751,"o":"m 654 0 l 557 0 l 557 356 l 194 356 l 194 0 l 98 0 l 98 727 l 194 727 l 194 442 l 557 442 l 557 727 l 654 727 z"},"4":{"x_min":0,"x_max":636,"ha":636,"o":"m 587 205 l 479 205 l 479 0 l 386 0 l 386 205 l 38 205 l 38 317 l 390 727 l 479 727 l 479 283 l 587 283 z m 386 283 l 386 611 l 104 283 z"},"~":{"x_min":0,"x_max":818,"ha":818,"o":"m 727 453 q 726 404 716 357 q 706 311 684 274 q 662 236 630 215 q 598 193 549 193 q 503 193 468 213 q 432 232 391 282 q 341 343 319 358 q 296 374 272 374 q 226 374 202 331 q 177 289 173 193 l 91 193 q 92 242 102 288 q 112 334 134 372 q 155 408 188 430 q 222 452 269 452 q 314 452 350 433 q 386 415 428 364 q 467 316 492 294 q 517 271 546 271 q 597 271 620 321 q 644 370 646 453 z"},"D":{"x_min":0,"x_max":771,"ha":771,"o":"m 712 363 q 712 264 669 183 q 625 103 554 58 q 504 27 443 14 q 381 0 281 0 l 98 0 l 98 727 l 279 727 q 386 727 448 712 q 511 696 555 669 q 629 623 670 546 q 712 469 712 363 z m 611 364 q 611 450 581 508 q 551 567 492 601 q 449 625 401 635 q 353 644 285 644 l 194 644 l 194 83 l 285 83 q 355 83 407 93 q 459 104 502 131 q 557 166 584 223 q 611 279 611 364 z"},"^":{"x_min":0,"x_max":818,"ha":818,"o":"m 728 334 l 631 334 l 409 640 l 187 333 l 91 333 l 378 727 l 440 727 z"},"0":{"x_min":0,"x_max":636,"ha":636,"o":"m 570 364 q 570 168 509 76 q 447 -15 318 -15 q 188 -15 127 78 q 67 170 67 363 q 67 557 128 649 q 189 742 318 742 q 449 742 510 648 q 570 554 570 364 z m 441 142 q 458 182 465 235 q 471 289 471 364 q 471 438 465 493 q 458 547 441 585 q 424 623 394 642 q 365 661 318 661 q 272 661 242 642 q 212 623 195 584 q 178 548 172 490 q 166 432 166 363 q 166 287 171 235 q 177 184 194 144 q 210 105 240 85 q 270 65 318 65 q 364 65 395 84 q 425 104 441 142 z"},"F":{"x_min":0,"x_max":575,"ha":575,"o":"m 562 641 l 194 641 l 194 436 l 510 436 l 510 350 l 194 350 l 194 0 l 98 0 l 98 727 l 562 727 z"},"`":{"x_min":0,"x_max":636,"ha":636,"o":"m 372 636 l 299 636 l 166 818 l 285 818 z"},"k":{"x_min":0,"x_max":592,"ha":592,"o":"m 585 0 l 464 0 l 246 239 l 186 182 l 186 0 l 94 0 l 94 760 l 186 760 l 186 272 l 451 545 l 567 545 l 313 293 z"},"u":{"x_min":0,"x_max":633,"ha":633,"o":"m 542 0 l 451 0 l 451 61 q 404 24 362 4 q 319 -15 268 -15 q 182 -15 134 37 q 86 90 86 191 l 86 545 l 178 545 l 178 235 q 178 193 182 164 q 186 134 199 113 q 212 92 233 82 q 254 72 294 72 q 330 72 372 91 q 414 109 451 138 l 451 545 l 542 545 z"},"]":{"x_min":0,"x_max":454,"ha":454,"o":"m 337 -191 l 83 -191 l 83 -122 l 252 -122 l 252 690 l 83 690 l 83 760 l 337 760 z"},"U":{"x_min":0,"x_max":732,"ha":732,"o":"m 645 292 q 645 213 628 154 q 610 95 571 56 q 533 19 483 2 q 433 -15 366 -15 q 297 -15 247 3 q 196 21 161 56 q 122 96 104 153 q 87 209 87 292 l 87 727 l 184 727 l 184 287 q 184 228 192 194 q 200 160 219 132 q 240 100 277 84 q 314 68 366 68 q 418 68 455 84 q 491 100 513 132 q 532 160 540 196 q 548 231 548 285 l 548 727 l 645 727 z"},"o":{"x_min":0,"x_max":607,"ha":607,"o":"m 555 272 q 555 139 487 62 q 418 -15 304 -15 q 188 -15 120 62 q 52 139 52 272 q 52 406 120 483 q 188 561 304 561 q 418 561 487 483 q 555 406 555 272 z m 460 272 q 460 378 419 430 q 377 481 304 481 q 229 481 188 430 q 146 378 146 272 q 146 170 188 117 q 229 64 304 64 q 377 64 419 116 q 460 169 460 272 z"},"N":{"x_min":0,"x_max":748,"ha":748,"o":"m 652 0 l 533 0 l 188 650 l 188 0 l 98 0 l 98 727 l 248 727 l 562 133 l 562 727 l 652 727 z"},"+":{"x_min":0,"x_max":818,"ha":818,"o":"m 716 279 l 450 279 l 450 13 l 369 13 l 369 279 l 103 279 l 103 357 l 369 357 l 369 624 l 450 624 l 450 357 l 716 357 z"},"G":{"x_min":0,"x_max":775,"ha":775,"o":"m 704 54 q 645 26 574 6 q 503 -14 438 -14 q 353 -14 282 9 q 211 33 161 80 q 111 127 83 198 q 56 269 56 364 q 56 539 158 639 q 260 740 438 740 q 500 740 564 725 q 629 710 704 675 l 704 560 l 695 560 q 680 572 651 591 q 622 610 594 623 q 561 638 518 648 q 475 658 421 658 q 299 658 228 579 q 157 501 157 367 q 157 226 231 148 q 305 69 433 69 q 480 69 527 79 q 573 88 608 103 l 608 281 l 414 281 l 414 366 l 704 366 z"},"q":{"x_min":0,"x_max":623,"ha":623,"o":"m 533 -201 l 441 -201 l 441 62 q 398 25 356 7 q 314 -11 266 -11 q 168 -11 111 64 q 53 139 53 271 q 53 341 73 395 q 93 449 126 486 q 159 521 202 541 q 246 561 294 561 q 338 561 372 551 q 406 541 441 522 l 447 545 l 533 545 z m 441 139 l 441 447 q 403 464 374 471 q 344 478 310 478 q 230 478 189 424 q 147 370 147 275 q 147 180 181 128 q 214 77 286 77 q 326 77 366 94 q 406 111 441 139 z"},"d":{"x_min":0,"x_max":623,"ha":623,"o":"m 533 0 l 441 0 l 441 57 q 401 23 358 4 q 315 -15 265 -15 q 167 -15 110 60 q 53 135 53 269 q 53 338 73 392 q 92 446 126 484 q 159 521 203 541 q 248 561 295 561 q 338 561 371 552 q 404 542 441 523 l 441 760 l 533 760 z m 441 134 l 441 447 q 404 464 375 470 q 345 477 311 477 q 233 477 190 423 q 147 369 147 271 q 147 173 181 123 q 214 72 287 72 q 326 72 366 90 q 406 107 441 134 z"},"1":{"x_min":0,"x_max":636,"ha":636,"o":"m 529 0 l 136 0 l 136 74 l 287 74 l 287 562 l 136 562 l 136 628 q 167 628 202 633 q 237 638 255 648 q 277 660 290 679 q 303 698 305 729 l 381 729 l 381 74 l 529 74 z"},"5":{"x_min":0,"x_max":636,"ha":636,"o":"m 565 231 q 565 180 546 134 q 528 87 496 56 q 460 21 412 3 q 363 -15 299 -15 q 240 -15 185 -3 q 129 10 91 27 l 91 130 l 98 130 q 138 105 192 87 q 246 69 297 69 q 332 69 365 79 q 397 89 422 113 q 444 134 455 164 q 466 193 466 231 q 466 269 453 295 q 440 321 417 336 q 392 355 355 363 q 319 370 274 370 q 231 370 191 364 q 151 358 123 353 l 123 727 l 560 727 l 560 642 l 217 642 l 217 448 q 238 450 260 451 q 282 452 298 452 q 357 452 401 442 q 446 432 483 407 q 522 380 543 337 q 565 295 565 231 z"}}}
